<svg width="35" height="40" viewBox="0 0 35 40" fill="none" xmlns="http://www.w3.org/2000/svg">
    <g clip-path="url(#clip0_1502_1978)">
        <path d="M26.9529 28.5455C25.0023 30.3187 22.3425 31.3827 19.5053 31.3827C13.1216 31.3827 8.51111 26.7722 8.51111 20.3886C8.51111 14.0049 13.1216 9.57173 19.5053 9.57173C22.3425 9.57173 25.0023 10.4584 26.9529 12.2316L28.3715 13.4729L34.4005 7.44383L32.8046 6.02524C29.4354 2.65606 24.6477 0.882812 19.5053 0.882812C8.15646 0.882812 -0.000488281 9.03976 -0.000488281 20.2112C-0.000488281 31.3827 8.33378 39.8943 19.5053 39.8943C24.6477 39.8943 29.4354 38.121 32.9819 34.7519L34.4005 33.3333L28.3715 27.3042L26.9529 28.5455Z" fill="black"/>
        <path d="M19.1474 26.9487C22.771 26.9487 25.7085 24.0112 25.7085 20.3877C25.7085 16.7641 22.771 13.8267 19.1474 13.8267C15.5239 13.8267 12.5864 16.7641 12.5864 20.3877C12.5864 24.0112 15.5239 26.9487 19.1474 26.9487Z" fill="#FF0000" fill-opacity="0.5"/>
    </g>
    <defs>
        <clipPath id="clip0_1502_1978">
            <rect width="34.5784" height="39.0115" fill="white" transform="translate(0 0.882812)"/>
        </clipPath>
    </defs>
</svg>
