<svg width="14" height="14" viewBox="0 0 14 14" fill="none" xmlns="http://www.w3.org/2000/svg">
    <path d="M8.2507 1.49989L9.42883 3.85616C9.58759 4.18203 10.0137 4.49118 10.373 4.55803L12.5037 4.90896C13.8656 5.13456 14.1832 6.12052 13.2056 7.10648L11.5428 8.76924C11.2671 9.04497 11.1083 9.58808 11.2002 9.98079L11.6765 12.0363C12.0525 13.6572 11.1835 14.2923 9.7547 13.44L7.75772 12.2535C7.39843 12.0363 6.79683 12.0363 6.43754 12.2535L4.44056 13.44C3.01176 14.2839 2.14278 13.6572 2.51878 12.0363L2.99504 9.98079C3.07025 9.57973 2.91149 9.03661 2.63576 8.76088L0.972996 7.09812C-0.00460613 6.12052 0.312906 5.13456 1.67486 4.90061L3.80554 4.54967C4.16482 4.49118 4.59096 4.17367 4.74971 3.8478L5.92785 1.49153C6.57123 0.221485 7.60732 0.221486 8.2507 1.49989Z" fill="#E4D651"/>
</svg>
